# Blender v2.76 (sub 0) OBJ File: ''
# www.blender.org
mtllib ruler.mtl
o Cube_Cube.001
v -8.139999 0.100000 1.000000
v -8.139999 -0.100000 1.000000
v -8.139999 0.100000 -1.000000
v -8.139999 -0.100000 -1.000000
v 8.139999 0.100000 1.000000
v 8.139999 -0.100000 1.000000
v 8.139999 0.100000 -1.000000
v 8.139999 -0.100000 -1.000000
vt 0.950938 0.971120
vt 0.970937 0.971120
vt 0.970938 0.991120
vt 0.946992 0.963919
vt 0.970326 0.963919
vt 0.970326 0.987253
vt 0.947969 0.967500
vt 0.971302 0.967500
vt 0.971302 0.990833
vt 0.947656 0.992383
vt 0.947656 0.966602
vt 0.972266 0.966602
vt 0.000000 1.000000
vt 0.957031 1.000000
vt 0.957031 0.914062
vt 0.000000 0.914062
vt 0.950938 0.991120
vt 0.946992 0.987253
vt 0.947969 0.990833
vt 0.972266 0.992383
vn 1.000000 0.000000 0.000000
vn 0.000000 0.000000 1.000000
vn -1.000000 0.000000 0.000000
vn 0.000000 0.000000 -1.000000
vn 0.000000 -1.000000 0.000000
vn 0.000000 1.000000 0.000000
usemtl None
s off
f 4/1/1 3/2/1 1/3/1
f 8/4/2 7/5/2 3/6/2
f 6/7/3 5/8/3 7/9/3
f 2/10/4 1/11/4 5/12/4
f 3/13/5 7/14/5 5/15/5
f 8/15/6 4/16/6 2/13/6
f 2/17/1 4/1/1 1/3/1
f 4/18/2 8/4/2 3/6/2
f 8/19/3 6/7/3 7/9/3
f 6/20/4 2/10/4 5/12/4
f 1/16/5 3/13/5 5/15/5
f 6/14/6 8/15/6 2/13/6
